<?xml version="1.0" encoding="UTF-8" standalone="no"?>
<svg
   xmlns:dc="http://purl.org/dc/elements/1.1/"
   xmlns:cc="http://creativecommons.org/ns#"
   xmlns:rdf="http://www.w3.org/1999/02/22-rdf-syntax-ns#"
   xmlns:svg="http://www.w3.org/2000/svg"
   xmlns="http://www.w3.org/2000/svg"
   xmlns:sodipodi="http://sodipodi.sourceforge.net/DTD/sodipodi-0.dtd"
   xmlns:inkscape="http://www.inkscape.org/namespaces/inkscape"
   width="45"
   height="45"
   viewBox="0 0 11.90625 11.90625"
   version="1.1"
   id="svg1125"
   inkscape:version="1.0.1 (3bc2e813f5, 2020-09-07)"
   sodipodi:docname="github-mark.svg">
  <defs
     id="defs1119" />
  <sodipodi:namedview
     id="base"
     pagecolor="#ffffff"
     bordercolor="#666666"
     borderopacity="1.0"
     inkscape:pageopacity="0.0"
     inkscape:pageshadow="2"
     inkscape:zoom="2.5126303"
     inkscape:cx="131.02405"
     inkscape:cy="85.751752"
     inkscape:document-units="mm"
     inkscape:current-layer="layer1"
     inkscape:document-rotation="0"
     showgrid="false"
     units="px"
     inkscape:window-width="1597"
     inkscape:window-height="869"
     inkscape:window-x="0"
     inkscape:window-y="28"
     inkscape:window-maximized="0" />
  <metadata
     id="metadata1122">
    <rdf:RDF>
      <cc:Work
         rdf:about="">
        <dc:format>image/svg+xml</dc:format>
        <dc:type
           rdf:resource="http://purl.org/dc/dcmitype/StillImage" />
        <dc:title></dc:title>
      </cc:Work>
    </rdf:RDF>
  </metadata>
  <g
     inkscape:label="Layer 1"
     inkscape:groupmode="layer"
     id="layer1">
    <path
       d="m 6.0106303,0.26458333 c -3.172886,0 -5.74604697,2.57280797 -5.74604697,5.74674997 0,2.538589 1.64641397,4.6926497 3.92994497,5.4528857 0.287513,0.05256 0.392288,-0.124884 0.392288,-0.277284 0,-0.136525 -0.0049,-0.497769 -0.0078,-0.977194 -1.598396,0.347133 -1.935651,-0.7704667 -1.935651,-0.7704667 -0.261409,-0.663927 -0.638175,-0.840669 -0.638175,-0.840669 -0.521759,-0.356306 0.03951,-0.34925 0.03951,-0.34925 0.576791,0.04057 0.88018,0.592314 0.88018,0.592314 0.512587,0.878064 1.345142,0.624416 1.67252,0.477308 0.05221,-0.371122 0.20073,-0.624416 0.364772,-0.767997 -1.275997,-0.145344 -2.617611,-0.638175 -2.617611,-2.840214 0,-0.627591 0.224014,-1.140178 0.591608,-1.541991 -0.05927,-0.145345 -0.256469,-0.729545 0.05644,-1.520826 0,0 0.482247,-0.154516 1.580091,0.588787 0.458259,-0.127353 0.950034,-0.190853 1.438624,-0.193323 0.48825,0.0025 0.97967,0.06597 1.43863,0.193323 1.09714,-0.743303 1.57868,-0.588787 1.57868,-0.588787 0.31362,0.791281 0.11642,1.375481 0.0575,1.520826 0.3683,0.401813 0.59055,0.9144 0.59055,1.541991 0,2.207683 -1.34373,2.693458 -2.6236,2.835628 0.20602,0.177447 0.38982,0.528108 0.38982,1.06433 0,0.7679977 -0.007,1.3878277 -0.007,1.5762107 0,0.153812 0.10371,0.33267 0.39511,0.276578 2.2817697,-0.761647 3.9267697,-2.9139437 3.9267697,-5.4521797 0,-3.173942 -2.5731597,-5.74674997 -5.7470997,-5.74674997"
       style="fill:#1b1817;fill-opacity:1;fill-rule:evenodd;stroke:none;stroke-width:0.0352777"
       id="path16" />
  </g>
</svg>
