<svg xmlns="http://www.w3.org/2000/svg" width="45" height="45" viewBox="0 0 11.906 11.906"><path d="M6.01.265a5.747 5.747 0 0 0-1.815 11.2c.287.052.392-.126.392-.278 0-.137-.005-.498-.008-.977-1.598.347-1.936-.77-1.936-.77-.261-.665-.638-.841-.638-.841-.522-.357.04-.35.04-.35.576.04.88.593.88.593.512.878 1.345.624 1.672.477.053-.371.201-.624.365-.768-1.276-.145-2.617-.638-2.617-2.84 0-.628.224-1.14.591-1.542-.06-.146-.256-.73.057-1.521 0 0 .482-.155 1.58.589.458-.128.95-.191 1.438-.194.489.003.98.066 1.439.194 1.097-.744 1.579-.59 1.579-.59.313.792.116 1.376.057 1.522.368.402.59.914.59 1.542 0 2.207-1.343 2.693-2.623 2.835.206.178.39.529.39 1.065 0 .768-.007 1.388-.007 1.576 0 .154.104.333.395.277a5.749 5.749 0 0 0-1.82-11.2" style="fill:#1b1817;fill-opacity:1;fill-rule:evenodd;stroke:none;stroke-width:.0352777"/></svg>