<svg xmlns="http://www.w3.org/2000/svg" width="105" height="105" viewBox="0 0 27.781 27.781"><circle style="opacity:.981896;fill:#fff;fill-opacity:.984314;stroke-width:.396875;stroke-linecap:round;stroke-linejoin:round" cx="13.891" cy="13.891" r="13.2"/><path style="opacity:.981896;fill:#333;fill-opacity:.98431402;stroke-width:.564115;stroke-linecap:round;stroke-linejoin:round" d="M13.89.661A13.23 13.23 0 0 0 .722 12.636c.249-.171.51-.344.799-.515.813-.492 1.84-.738 3.08-.738.77 0 1.413.171 1.926.514.514.32.941.887 1.284 1.7h.096a9.983 9.983 0 0 1 2.343-1.572c.877-.428 1.84-.642 2.888-.642.392 0 .92.254 1.06.144.142-.11.3-2.233.626-3.132.47-1.24 1.07-2.224 1.797-2.952.728-.727 1.497-1.241 2.31-1.54.813-.322 1.573-.482 2.279-.482.289 0 .557.012.81.033A13.23 13.23 0 0 0 13.89.661zm5.972 4.076c-1.006 0-1.84.439-2.503 1.316-.642.877-.963 2.225-.963 4.043v6.52c0 .13.033.214.097.257.085.043.17.064.256.064h4.012c.107 0 .203.032.289.096.085.064.128.15.128.257 0 .15-.022.31-.064.481a1.384 1.384 0 0 1-.129.45c-.064.171-.16.257-.289.257h-3.69c-.257 0-.428.042-.513.128-.064.064-.105.22-.118.386-.013.165-.018.318-.028.548v3.14c0 .427.15.716.45.866.3.128.61.246.93.353a3.3 3.3 0 0 1 .514.192c.15.065.225.172.225.321 0 .129-.054.215-.161.257-.086.065-.246.097-.481.097-.428 0-.76-.022-.996-.065-.235-.021-.46-.043-.673-.064a8.557 8.557 0 0 0-.867-.032c-.364 0-.663.01-.898.032a99.12 99.12 0 0 1-.738.064 6.51 6.51 0 0 1-1.027.065 1.07 1.07 0 0 1-.481-.097c-.107-.042-.161-.128-.161-.257 0-.17.064-.289.192-.353.15-.064.332-.117.546-.16.342-.086.652-.204.93-.353.3-.15.45-.439.45-.866v-3.716s-.001-.252-.128-.38c-.127-.126-.46-.11-.46-.11h-.946c-.158 0-.426-.182-.408-.424.017-.227.077-.553.132-.746.053-.186.149-.37.307-.37h1.178s.125.007.225-.095c.1-.101.1-.213.1-.213v-.686c0-.513-.118-.994-.353-1.444a3.316 3.316 0 0 0-.93-1.155c-.386-.3-.814-.45-1.285-.45a5.71 5.71 0 0 0-1.508.193c-.45.128-.877.353-1.284.674-.599.47-.898 1.24-.898 2.31v6.612c0 .427.16.716.481.866.321.15.642.267.963.353.214.043.385.107.513.192.15.065.225.172.225.321 0 .129-.053.215-.16.257-.107.065-.268.097-.482.097-.428 0-.77-.022-1.027-.065l-.705-.064a9.602 9.602 0 0 0-.899-.032c-.228 0-.423.005-.6.014a13.23 13.23 0 0 0 7.738 2.5A13.23 13.23 0 0 0 27.12 13.89a13.23 13.23 0 0 0-2.544-7.798.946.946 0 0 1-.157.217 1.05 1.05 0 0 1-.77.321.818.818 0 0 1-.546-.225c-.15-.15-.331-.32-.545-.513a4.946 4.946 0 0 0-1.027-.77c-.407-.256-.963-.385-1.669-.385ZM3.029 12.89a5.71 5.71 0 0 0-1.508.193 3.528 3.528 0 0 0-.852.38 13.23 13.23 0 0 0-.008.426 13.23 13.23 0 0 0 4.267 9.731l.187-.075c.32-.15.482-.439.482-.866v-6.74c0-.513-.118-.994-.354-1.444a3.316 3.316 0 0 0-.93-1.155c-.385-.3-.813-.45-1.284-.45z"/></svg>