<svg xmlns="http://www.w3.org/2000/svg" width="105" height="105" viewBox="0 0 27.781 27.781"><path style="font-style:normal;font-variant:normal;font-weight:400;font-stretch:normal;font-size:22.5778px;line-height:1.25;font-family:'EB Garamond';-inkscape-font-specification:'EB Garamond';fill:#3e3e3e;stroke-width:.385888;fill-opacity:1" d="M23.334 3.147c-.725 0-1.504.164-2.338.494-.835.307-1.624.834-2.37 1.58-.747.747-1.362 1.757-1.845 3.03-.334.922-.496 3.1-.641 3.214-.146.113-.687-.148-1.089-.148-1.075 0-2.063.219-2.963.658-.9.439-1.702.977-2.404 1.614h-.1c-.35-.835-.789-1.416-1.316-1.745-.527-.352-1.186-.527-1.976-.527-1.273 0-2.327.252-3.161.757-.812.483-1.47.966-1.975 1.449-.232.206-.37.527-.151.65.175.098.216.02.809-.42.417-.329.856-.56 1.317-.691a5.858 5.858 0 0 1 1.547-.198c.483 0 .923.154 1.318.461.395.308.713.703.955 1.186.241.461.362.955.362 1.482v6.915c0 .439-.165.735-.494.888-.308.132-.626.253-.955.363l-.527.197c-.154.044-.23.154-.23.33 0 .132.066.22.198.264.131.065.285.098.46.098.44 0 .79-.022 1.054-.066l.757-.066c.242-.022.55-.033.923-.033.395 0 .702.012.922.033l.724.066c.263.044.614.066 1.053.066.22 0 .385-.033.495-.098.11-.044.164-.132.164-.264 0-.154-.077-.264-.23-.33a1.47 1.47 0 0 0-.527-.197 5.982 5.982 0 0 1-.988-.363c-.33-.153-.494-.45-.494-.888v-6.784c0-1.098.307-1.887.922-2.37.417-.33.856-.56 1.317-.692a5.858 5.858 0 0 1 1.548-.198c.482 0 .922.154 1.317.461.395.308.713.703.955 1.186.241.461.362.955.362 1.482v.703s0 .115-.102.22c-.103.103-.232.097-.232.097h-1.208c-.162 0-.26.188-.315.38a4.495 4.495 0 0 0-.135.764c-.018.25.256.436.418.436h.97s.342-.018.473.113c.13.13.131.39.131.39v3.812c0 .439-.153.735-.46.888a4.107 4.107 0 0 1-.956.363 2.86 2.86 0 0 0-.56.164c-.131.066-.197.187-.197.363 0 .132.055.22.165.264.132.065.296.098.494.098.439 0 .79-.022 1.053-.066l.758-.066c.241-.022.548-.033.921-.033.396 0 .692.012.89.033l.69.066c.242.044.583.066 1.022.066.242 0 .406-.033.494-.098.11-.044.165-.132.165-.264 0-.154-.077-.264-.23-.33a3.388 3.388 0 0 0-.528-.197c-.329-.11-.647-.23-.955-.363-.307-.153-.46-.45-.46-.888v-3.221c.01-.236.015-.394.028-.563.013-.17.055-.33.12-.396.088-.088.264-.131.527-.131h3.787c.132 0 .23-.088.296-.264.066-.132.11-.286.132-.461.044-.176.065-.34.065-.494a.313.313 0 0 0-.13-.264.481.481 0 0 0-.297-.098h-4.117a.583.583 0 0 1-.263-.066c-.065-.044-.098-.131-.098-.263v-6.69c0-1.867.328-3.25.987-4.15.68-.9 1.537-1.35 2.569-1.35.724 0 1.295.132 1.712.395.417.242.768.505 1.054.79.22.198.406.373.56.527a.84.84 0 0 0 .56.23c.307 0 .57-.11.79-.329.219-.22.329-.548.329-.987 0-.57-.296-1.043-.889-1.416-.592-.373-1.504-.56-2.733-.56Z"/></svg>