<?xml version="1.0" encoding="UTF-8" standalone="no"?>
<svg
   xmlns:dc="http://purl.org/dc/elements/1.1/"
   xmlns:cc="http://creativecommons.org/ns#"
   xmlns:rdf="http://www.w3.org/1999/02/22-rdf-syntax-ns#"
   xmlns:svg="http://www.w3.org/2000/svg"
   xmlns="http://www.w3.org/2000/svg"
   xmlns:sodipodi="http://sodipodi.sourceforge.net/DTD/sodipodi-0.dtd"
   xmlns:inkscape="http://www.inkscape.org/namespaces/inkscape"
   width="105"
   height="105"
   viewBox="0 0 27.78125 27.781251"
   version="1.1"
   id="svg8"
   inkscape:version="1.0.1 (3bc2e813f5, 2020-09-07)"
   sodipodi:docname="logo.svg">
  <defs
     id="defs2" />
  <sodipodi:namedview
     id="base"
     pagecolor="#ffffff"
     bordercolor="#666666"
     borderopacity="1.0"
     inkscape:pageopacity="0.0"
     inkscape:pageshadow="2"
     inkscape:zoom="1.804414"
     inkscape:cx="-8.466307"
     inkscape:cy="29.846461"
     inkscape:document-units="mm"
     inkscape:current-layer="layer1"
     inkscape:document-rotation="0"
     showgrid="false"
     inkscape:window-width="1597"
     inkscape:window-height="869"
     inkscape:window-x="0"
     inkscape:window-y="28"
     inkscape:window-maximized="0"
     units="px" />
  <metadata
     id="metadata5">
    <rdf:RDF>
      <cc:Work
         rdf:about="">
        <dc:format>image/svg+xml</dc:format>
        <dc:type
           rdf:resource="http://purl.org/dc/dcmitype/StillImage" />
        <dc:title />
      </cc:Work>
    </rdf:RDF>
  </metadata>
  <g
     inkscape:label="Layer 1"
     inkscape:groupmode="layer"
     id="layer1">
    <circle
       style="opacity:0.981896;fill:#ffffff;fill-opacity:0.984314;stroke-width:0.396875;stroke-linecap:round;stroke-linejoin:round"
       id="path913"
       cx="13.890629"
       cy="13.890626"
       r="13.2" />
    <path
       id="path850"
       style="opacity:0.981896;fill:#333333;fill-opacity:0.98431402;stroke-width:0.564115;stroke-linecap:round;stroke-linejoin:round"
       d="M 13.890286,0.66145833 A 13.229207,13.229225 0 0 0 0.72174133,12.63642 c 0.248843,-0.171767 0.51041397,-0.343949 0.79916297,-0.51564 0.812994,-0.492078 1.839704,-0.737464 3.080593,-0.737464 0.770198,4e-6 1.412446,0.171123 1.92592,0.513435 0.513465,0.320918 0.940917,0.887432 1.283214,1.700423 h 0.09623 c 0.684629,-0.620443 1.46595,-1.144724 2.3431327,-1.572617 0.877182,-0.427889 1.839816,-0.641241 2.888148,-0.641241 0.391593,0 0.919081,0.253998 1.060652,0.14397 0.141528,-0.11003 0.299596,-2.2330725 0.625079,-3.1320165 0.470693,-1.240888 1.069956,-2.224641 1.797381,-2.9520555 0.727411,-0.727416 1.497085,-1.2415051 2.310078,-1.5410309 0.812991,-0.3209177 1.572472,-0.4811157 2.278491,-0.4811157 0.28879,0 0.557398,0.01194 0.810181,0.033062 a 13.229207,13.229225 0 0 0 -8.12971,-2.79266217 z m 5.97168,4.07514467 c -1.005548,0 -1.840024,0.439088 -2.503257,1.3162685 -0.641845,0.87718 -0.962229,2.225013 -0.962229,4.0435595 v 6.520376 c 0,0.128366 0.03212,0.213567 0.09623,0.25635 0.08558,0.04277 0.17078,0.0639 0.256348,0.0639 h 4.01197 c 0.106888,0 0.203099,0.03204 0.288668,0.09623 0.08557,0.06418 0.127812,0.150112 0.127812,0.257086 0,0.149765 -0.02114,0.309955 -0.06391,0.481111 -0.02132,0.17116 -0.06443,0.321166 -0.128536,0.449532 -0.0641,0.17116 -0.160315,0.257082 -0.288666,0.257082 h -3.690261 c -0.256731,0 -0.427865,0.04223 -0.513433,0.127811 -0.06411,0.06418 -0.104728,0.22039 -0.11752,0.385627 -0.01279,0.165236 -0.01798,0.318909 -0.0279,0.548692 v 3.139356 c 0,0.427894 0.150002,0.716243 0.449527,0.866008 0.299518,0.128366 0.609721,0.24633 0.930643,0.353304 0.213935,0.06418 0.385083,0.128252 0.513434,0.192447 0.149715,0.06417 0.224762,0.171223 0.224762,0.320988 0,0.128366 -0.05383,0.214301 -0.160859,0.257083 -0.08558,0.06419 -0.245774,0.09623 -0.481115,0.09623 -0.427895,0 -0.759925,-0.02185 -0.995277,-0.06464 -0.235341,-0.02139 -0.459611,-0.04251 -0.67356,-0.06391 -0.192556,-0.02136 -0.481641,-0.03231 -0.866736,-0.03231 -0.363706,-5e-6 -0.662984,0.0108 -0.898325,0.03231 -0.235337,0.02141 -0.481464,0.0425 -0.738197,0.06391 -0.256728,0.0428 -0.598968,0.06464 -1.02686,0.06464 -0.192559,0 -0.352764,-0.03204 -0.481116,-0.09623 -0.106988,-0.0428 -0.160861,-0.128721 -0.160861,-0.257083 0,-0.171152 0.06409,-0.289131 0.192445,-0.353308 0.149757,-0.06418 0.331805,-0.117336 0.545751,-0.160127 0.342315,-0.08558 0.652518,-0.203539 0.930641,-0.353304 0.29953,-0.149765 0.449532,-0.438114 0.449532,-0.866008 v -3.71522 c 0,0 -0.0016,-0.252705 -0.128536,-0.379751 -0.127044,-0.12703 -0.459814,-0.110187 -0.459814,-0.110187 h -0.946078 c -0.15749,0 -0.425571,-0.182092 -0.407663,-0.424553 0.01677,-0.226875 0.07721,-0.55314 0.132218,-0.745541 0.05323,-0.18597 0.148805,-0.370203 0.306295,-0.370203 h 1.178175 c 0,0 0.125438,0.0067 0.225499,-0.09475 0.100166,-0.101417 0.0999,-0.213014 0.0999,-0.213014 v -0.686047 c 0,-0.513472 -0.117961,-0.994787 -0.353307,-1.444075 -0.235337,-0.470687 -0.545543,-0.855891 -0.930642,-1.155417 -0.38511,-0.299527 -0.813268,-0.449528 -1.283947,-0.449528 -0.534867,0 -1.037281,0.06408 -1.507975,0.192445 -0.4492907,0.128366 -0.8774607,0.353377 -1.2839497,0.674294 -0.599045,0.470683 -0.898322,1.24035 -0.898322,2.310083 v 6.611454 c 0,0.427893 0.160193,0.716243 0.481114,0.866008 0.320922,0.149765 0.642038,0.267725 0.962962,0.353304 0.213946,0.0428 0.385079,0.10686 0.513431,0.192446 0.149716,0.06418 0.2247647,0.171224 0.2247647,0.320989 0,0.128366 -0.0531,0.214301 -0.1601287,0.257083 -0.106974,0.06419 -0.267914,0.09623 -0.481849,0.09623 -0.427891,0 -0.770132,-0.02185 -1.02686,-0.06464 l -0.70588,-0.06391 c -0.213946,-0.02136 -0.513208,-0.03231 -0.898321,-0.03231 -0.228475,0 -0.422884,0.0054 -0.600843,0.01393 A 13.229207,13.229225 0 0 0 13.890295,27.119793 13.229207,13.229225 0 0 0 27.1198,13.890263 13.229207,13.229225 0 0 0 24.576145,6.0918125 c -0.04426,0.08075 -0.09466,0.154883 -0.157188,0.21742 -0.213931,0.213939 -0.470249,0.320986 -0.769778,0.320986 -0.192556,0 -0.374588,-0.07499 -0.545752,-0.224762 C 22.95367,6.2556975 22.771624,6.0845705 22.557673,5.8920201 22.27955,5.6138892 21.937313,5.3575851 21.530812,5.1222395 21.124307,4.8655076 20.56799,4.7366143 19.861974,4.7366143 Z M 3.0288823,12.891298 c -0.534866,0 -1.037296,0.06408 -1.507978,0.192445 -0.293495,0.08385 -0.57673697,0.21362 -0.85204597,0.379751 a 13.229207,13.229225 0 0 0 -0.0074,0.426757 13.229207,13.229225 0 0 0 4.26684797,9.730986 c 0.06197,-0.02531 0.125494,-0.04948 0.186567,-0.07566 0.32091,-0.149765 0.481851,-0.438114 0.481851,-0.866007 v -6.739259 c -2e-6,-0.513473 -0.117961,-0.994787 -0.353308,-1.444075 -0.235336,-0.470679 -0.545543,-0.855883 -0.930642,-1.155409 -0.385095,-0.299527 -0.813268,-0.449528 -1.283946,-0.449528 z" />
  </g>
</svg>
