<?xml version="1.0" encoding="UTF-8" standalone="no"?>
<svg
   xmlns:dc="http://purl.org/dc/elements/1.1/"
   xmlns:cc="http://creativecommons.org/ns#"
   xmlns:rdf="http://www.w3.org/1999/02/22-rdf-syntax-ns#"
   xmlns:svg="http://www.w3.org/2000/svg"
   xmlns="http://www.w3.org/2000/svg"
   xmlns:sodipodi="http://sodipodi.sourceforge.net/DTD/sodipodi-0.dtd"
   xmlns:inkscape="http://www.inkscape.org/namespaces/inkscape"
   width="105"
   height="105"
   viewBox="0 0 27.78125 27.781251"
   version="1.1"
   id="svg8"
   inkscape:version="1.0.1 (3bc2e813f5, 2020-09-07)"
   sodipodi:docname="logo_ligature.svg">
  <defs
     id="defs2" />
  <sodipodi:namedview
     id="base"
     pagecolor="#ffffff"
     bordercolor="#666666"
     borderopacity="1.0"
     inkscape:pageopacity="0.0"
     inkscape:pageshadow="2"
     inkscape:zoom="2.4956612"
     inkscape:cx="12.15533"
     inkscape:cy="47.310452"
     inkscape:document-units="mm"
     inkscape:current-layer="layer1"
     inkscape:document-rotation="0"
     showgrid="false"
     inkscape:window-width="1597"
     inkscape:window-height="869"
     inkscape:window-x="0"
     inkscape:window-y="28"
     inkscape:window-maximized="0"
     units="px" />
  <metadata
     id="metadata5">
    <rdf:RDF>
      <cc:Work
         rdf:about="">
        <dc:format>image/svg+xml</dc:format>
        <dc:type
           rdf:resource="http://purl.org/dc/dcmitype/StillImage" />
        <dc:title />
      </cc:Work>
    </rdf:RDF>
  </metadata>
  <g
     inkscape:label="Layer 1"
     inkscape:groupmode="layer"
     id="layer1">
    <path
       id="path858-0"
       style="font-style:normal;font-variant:normal;font-weight:normal;font-stretch:normal;font-size:22.5778px;line-height:1.25;font-family:'EB Garamond';-inkscape-font-specification:'EB Garamond';fill:#3e3e3e;stroke-width:0.385888;fill-opacity:1"
       d="m 23.333619,3.1469237 c -0.72444,0 -1.503734,0.1643732 -2.33794,0.4936621 -0.834202,0.3073418 -1.623956,0.8348478 -2.37035,1.5812404 -0.7464,0.7463927 -1.361314,1.7558113 -1.844277,3.0290741 -0.333975,0.9223974 -0.496163,3.1008227 -0.64139,3.2137287 -0.14522,0.112901 -0.686515,-0.147724 -1.088325,-0.147724 -1.075687,0 -2.063439,0.218914 -2.963504,0.657969 -0.900065,0.439057 -1.701779,0.977016 -2.4042667,1.613648 H 9.5848421 C 9.2335973,12.754316 8.7950087,12.173024 8.268143,11.843734 7.7412743,11.492491 7.0822692,11.316905 6.2919705,11.316905 c -1.2732627,0 -2.3267609,0.251788 -3.1609669,0.756704 -0.8122574,0.482958 -1.4705056,0.96638 -1.9754213,1.449343 -0.23144111,0.205829 -0.36930648,0.526714 -0.1507364,0.649677 0.1753948,0.09867 0.2159828,0.01998 0.8087075,-0.419048 0.4171023,-0.329289 0.8564361,-0.560179 1.3174502,-0.691887 0.4829627,-0.131715 0.9984975,-0.197466 1.5473192,-0.197466 0.4829598,0 0.9222965,0.153916 1.3174473,0.461256 0.3951493,0.307341 0.7134413,0.702595 0.9549226,1.185553 0.2414741,0.46101 0.3625276,0.954882 0.3625276,1.481751 v 6.915092 c 0,0.439055 -0.1651301,0.734927 -0.4944205,0.888599 -0.3073359,0.131715 -0.6256294,0.252757 -0.9549226,0.362524 -0.1756224,0.06586 -0.3512084,0.131613 -0.5268308,0.197467 -0.1536723,0.0439 -0.2306259,0.153741 -0.2306259,0.329359 0,0.131715 0.066507,0.219876 0.1982186,0.263793 0.131715,0.06585 0.2848827,0.09874 0.4605051,0.09874 0.4390552,0 0.7902213,-0.02242 1.0536556,-0.06633 0.2634358,-0.02197 0.5159753,-0.04362 0.7574567,-0.06557 0.2414813,-0.02199 0.549316,-0.03315 0.9225138,-0.03315 0.3951493,0 0.7022315,0.01123 0.9217598,0.03315 l 0.7242969,0.06557 c 0.263434,0.04391 0.6146,0.06633 1.053657,0.06633 0.219528,0 0.38465,-0.03287 0.494419,-0.09874 0.109765,-0.0439 0.164305,-0.132079 0.164305,-0.263793 0,-0.153672 -0.07696,-0.263512 -0.230631,-0.329359 -0.131715,-0.08781 -0.307298,-0.153553 -0.526826,-0.197467 -0.32929,-0.08781 -0.658794,-0.208851 -0.988087,-0.362524 C 9.7823737,23.642807 9.6179961,23.346935 9.6179961,22.90788 v -6.783952 c 0,-1.09764 0.3070836,-1.887385 0.9217609,-2.370347 0.417103,-0.329289 0.856441,-0.560179 1.317451,-0.691887 0.482962,-0.131715 0.998497,-0.197466 1.547319,-0.197466 0.482962,0 0.922296,0.153916 1.31745,0.461256 0.395146,0.307341 0.713438,0.702595 0.954921,1.185553 0.241477,0.46101 0.362526,0.954882 0.362526,1.481751 v 0.703478 c 0,0 1.01e-4,0.115016 -0.102604,0.219069 -0.102691,0.104063 -0.231474,0.09719 -0.231474,0.09719 h -1.208724 c -0.161598,0 -0.259749,0.188851 -0.314356,0.379668 -0.0565,0.19742 -0.11802,0.532322 -0.135259,0.765116 -0.01841,0.248787 0.256084,0.435796 0.417681,0.435796 h 0.971062 c 0,0 0.341713,-0.01794 0.472077,0.112405 0.130373,0.130358 0.131598,0.390095 0.131598,0.390095 v 3.812266 c 0,0.439055 -0.153918,0.734927 -0.461259,0.8886 -0.285386,0.153672 -0.603678,0.274707 -0.954921,0.362523 -0.219528,0.04391 -0.406325,0.09845 -0.559993,0.164303 -0.13173,0.06585 -0.197468,0.186905 -0.197468,0.362523 0,0.131715 0.05529,0.219876 0.16506,0.263793 0.131715,0.06585 0.296088,0.09874 0.493668,0.09874 0.439055,0 0.790221,-0.02242 1.053654,-0.06633 0.263435,-0.02197 0.515979,-0.04362 0.75746,-0.06557 0.241481,-0.02199 0.548563,-0.03315 0.92176,-0.03315 0.39515,0 0.691775,0.01123 0.889354,0.03315 0.219528,0.02195 0.449648,0.04362 0.691129,0.06557 0.241482,0.04391 0.582195,0.06633 1.021251,0.06633 0.24148,0 0.405846,-0.03287 0.493662,-0.09874 0.109765,-0.0439 0.165061,-0.132079 0.165061,-0.263793 0,-0.153672 -0.07696,-0.263511 -0.230631,-0.329359 -0.131715,-0.06586 -0.307298,-0.131613 -0.526826,-0.197467 -0.32929,-0.109765 -0.647582,-0.230808 -0.954923,-0.362523 -0.307341,-0.153673 -0.46126,-0.449545 -0.46126,-0.8886 v -3.221262 c 0.01079,-0.235779 0.0154,-0.39346 0.02863,-0.563008 0.01327,-0.169548 0.0548,-0.329835 0.120586,-0.395686 0.08781,-0.08781 0.263401,-0.131146 0.526831,-0.131146 h 3.786531 c 0.131744,0 0.230417,-0.08817 0.296196,-0.263794 0.06578,-0.131715 0.109896,-0.28563 0.13189,-0.461256 0.0439,-0.175622 0.06557,-0.339995 0.06557,-0.493668 0,-0.109765 -0.04335,-0.197937 -0.131146,-0.263788 -0.08781,-0.06585 -0.186523,-0.09874 -0.296201,-0.09874 h -4.116646 c -0.08781,0 -0.175236,-0.02169 -0.263038,-0.06557 -0.06578,-0.0439 -0.09874,-0.131322 -0.09874,-0.263038 V 9.9964327 c 0,-1.8659904 0.328747,-3.2489919 0.987335,-4.1490583 0.680541,-0.900065 1.536781,-1.3506087 2.56857,-1.3506087 0.72444,0 1.29527,0.1322546 1.712379,0.395686 0.417111,0.2414843 0.768278,0.5044796 1.053658,0.7898669 0.219532,0.1975754 0.406325,0.3731628 0.55999,0.5268264 0.175626,0.1536723 0.362411,0.2306303 0.559989,0.2306303 0.307345,0 0.570348,-0.1098378 0.789864,-0.3293589 0.21947,-0.2195328 0.329364,-0.5482791 0.329364,-0.9873344 3e-6,-0.5707717 -0.295873,-1.042984 -0.888597,-1.4161803 C 25.474532,3.333702 24.562979,3.1469135 23.333614,3.1469135 Z"
       sodipodi:nodetypes="scscssscccsccsccsscsscccscsccsccscsccsssccsscsczcssssczcscccscsccsccscscccscccssccsssscsscscccscssss" />
  </g>
</svg>
