<?xml version="1.0" standalone="no"?>
<!DOCTYPE svg PUBLIC "-//W3C//DTD SVG 20010904//EN"
 "http://www.w3.org/TR/2001/REC-SVG-20010904/DTD/svg10.dtd">
<svg version="1.0" xmlns="http://www.w3.org/2000/svg"
 width="700.000000pt" height="700.000000pt" viewBox="0 0 700.000000 700.000000"
 preserveAspectRatio="xMidYMid meet">
<metadata>
Created by potrace 1.11, written by Peter Selinger 2001-2013
</metadata>
<g transform="translate(0.000000,700.000000) scale(0.100000,-0.100000)"
fill="#000000" stroke="none">
<path d="M3230 6823 c-468 -47 -831 -149 -1220 -343 -897 -446 -1545 -1277
-1764 -2260 -23 -104 -69 -391 -63 -396 1 -1 60 34 130 78 147 91 249 137 380
172 162 43 231 51 447 50 194 0 210 -2 295 -28 230 -70 384 -209 501 -452 19
-41 39 -74 44 -74 5 0 31 19 57 43 199 176 522 366 743 436 242 77 493 100
658 61 46 -11 96 -20 112 -20 37 0 39 7 85 301 46 294 69 404 112 519 82 222
236 488 370 641 182 208 428 382 663 469 237 89 370 114 592 115 92 0 164 2
160 6 -48 40 -160 118 -260 181 -446 279 -954 450 -1482 498 -106 9 -478 12
-560 3z"/>
<path d="M4904 5799 c-176 -23 -333 -104 -457 -238 -160 -173 -241 -371 -294
-721 -14 -90 -17 -248 -20 -1081 -4 -958 -4 -976 16 -1000 l19 -24 554 -5
c411 -4 559 -8 574 -17 38 -22 46 -66 29 -164 -9 -49 -24 -108 -34 -133 -35
-80 -2 -76 -576 -76 -391 0 -516 -3 -535 -13 -55 -28 -55 -30 -58 -579 -2
-334 0 -520 7 -546 25 -93 82 -135 263 -197 228 -77 258 -95 258 -156 0 -31
-6 -42 -32 -61 -31 -21 -43 -23 -168 -23 -74 0 -207 8 -294 18 -193 21 -399
21 -606 2 -428 -41 -530 -28 -530 68 0 65 34 89 170 122 77 19 150 45 233 85
55 26 103 79 117 130 13 46 13 1060 0 1094 -19 52 -47 59 -234 64 -185 4 -204
9 -230 61 -17 31 -9 119 20 223 28 98 29 98 220 98 166 0 195 5 221 39 19 24
17 284 -2 376 -32 156 -115 305 -235 425 -133 134 -241 180 -420 180 -178 0
-371 -40 -495 -102 -228 -115 -341 -252 -386 -471 -18 -87 -19 -147 -19 -1023
0 -670 3 -941 11 -965 20 -59 56 -96 123 -128 65 -30 238 -91 261 -91 6 0 39
-14 73 -30 67 -34 89 -70 72 -115 -19 -51 -52 -60 -205 -60 -77 0 -214 8 -304
18 -172 18 -456 23 -447 8 3 -4 50 -37 103 -73 465 -306 989 -488 1556 -539
186 -17 565 -6 742 21 784 119 1486 489 1996 1053 747 826 1035 1945 779 3024
-90 379 -246 737 -468 1071 l-74 113 -42 -43 c-71 -75 -162 -103 -251 -78 -35
10 -70 36 -157 117 -258 240 -399 318 -623 343 -101 11 -133 11 -221 -1z"/>
<path d="M562 3739 c-106 -13 -223 -47 -309 -89 l-83 -39 0 -148 c0 -740 271
-1485 756 -2079 92 -113 277 -310 305 -325 14 -7 29 -4 57 10 58 30 98 81 112
143 8 39 10 306 8 983 -4 1046 1 967 -83 1140 -102 209 -260 353 -436 400 -59
16 -222 18 -327 4z"/>
</g>
</svg>
